<svg style="background:#1a1a19" xmlns="http://www.w3.org/2000/svg" xmlns:xlink="http://www.w3.org/1999/xlink" version="1.1" class="marks" width="792.5" height="314" viewBox="0 0 792.5 314"><rect width="792.5" height="314" fill="#1a1a19"/><g fill="none" stroke-miterlimit="4" transform="translate(56,33)"><g class="mark-group role-frame root" role="graphics-object" aria-roledescription="group mark container"><g transform="translate(0,0)"><path class="background" aria-hidden="true" d="M0,0h724.5v230h-724.5Z"/><g><g class="mark-group role-axis" aria-hidden="true"><g transform="translate(0.5,0.5)"><path class="background" aria-hidden="true" d="M0,0h0v0h0Z" pointer-events="none"/><g><g class="mark-rule role-axis-grid" pointer-events="none"><line transform="translate(0,230)" x2="724.5" y2="0" stroke="#2c2c2a" stroke-width="1" opacity="1"/><line transform="translate(0,192)" x2="724.5" y2="0" stroke="#2c2c2a" stroke-width="1" opacity="1"/><line transform="translate(0,153)" x2="724.5" y2="0" stroke="#2c2c2a" stroke-width="1" opacity="1"/><line transform="translate(0,115)" x2="724.5" y2="0" stroke="#2c2c2a" stroke-width="1" opacity="1"/><line transform="translate(0,77)" x2="724.5" y2="0" stroke="#2c2c2a" stroke-width="1" opacity="1"/><line transform="translate(0,38)" x2="724.5" y2="0" stroke="#2c2c2a" stroke-width="1" opacity="1"/><line transform="translate(0,0)" x2="724.5" y2="0" stroke="#2c2c2a" stroke-width="1" opacity="1"/></g></g><path class="foreground" aria-hidden="true" d="" pointer-events="none" display="none"/></g></g><g class="mark-group role-axis" role="graphics-symbol" aria-roledescription="axis" aria-label="X-axis titled 'Files the agent is allowed to read' for a discrete scale with 4 values: 5 files, 10 files, 15 files, 20 files"><g transform="translate(0.5,230.5)"><path class="background" aria-hidden="true" d="M0,0h0v0h0Z" pointer-events="none"/><g><g class="mark-text role-axis-label" pointer-events="none"><text text-anchor="middle" transform="translate(103,15)" font-family="system-ui, -apple-system, &quot;Segoe UI&quot;, sans-serif" font-size="11.5px" fill="#c3c2b7" opacity="1">5 files</text><text text-anchor="middle" transform="translate(275.5,15)" font-family="system-ui, -apple-system, &quot;Segoe UI&quot;, sans-serif" font-size="11.5px" fill="#c3c2b7" opacity="1">10 files</text><text text-anchor="middle" transform="translate(448,15)" font-family="system-ui, -apple-system, &quot;Segoe UI&quot;, sans-serif" font-size="11.5px" fill="#c3c2b7" opacity="1">15 files</text><text text-anchor="middle" transform="translate(620.5,15)" font-family="system-ui, -apple-system, &quot;Segoe UI&quot;, sans-serif" font-size="11.5px" fill="#c3c2b7" opacity="1">20 files</text></g><g class="mark-text role-axis-title" pointer-events="none"><text text-anchor="middle" transform="translate(362.25,36.5)" font-family="system-ui, -apple-system, &quot;Segoe UI&quot;, sans-serif" font-size="12px" font-weight="500" fill="#c3c2b7" opacity="1">Files the agent is allowed to read</text></g></g><path class="foreground" aria-hidden="true" d="" pointer-events="none" display="none"/></g></g><g class="mark-group role-axis" role="graphics-symbol" aria-roledescription="axis" aria-label="Y-axis titled 'Planted bugs included (of 6)' for a linear scale with values from 0 to 6"><g transform="translate(0.5,0.5)"><path class="background" aria-hidden="true" d="M0,0h0v0h0Z" pointer-events="none"/><g><g class="mark-rule role-axis-tick" pointer-events="none"><line transform="translate(0,230)" x2="-5" y2="0" stroke="#383835" stroke-width="1" opacity="1"/><line transform="translate(0,192)" x2="-5" y2="0" stroke="#383835" stroke-width="1" opacity="1"/><line transform="translate(0,153)" x2="-5" y2="0" stroke="#383835" stroke-width="1" opacity="1"/><line transform="translate(0,115)" x2="-5" y2="0" stroke="#383835" stroke-width="1" opacity="1"/><line transform="translate(0,77)" x2="-5" y2="0" stroke="#383835" stroke-width="1" opacity="1"/><line transform="translate(0,38)" x2="-5" y2="0" stroke="#383835" stroke-width="1" opacity="1"/><line transform="translate(0,0)" x2="-5" y2="0" stroke="#383835" stroke-width="1" opacity="1"/></g><g class="mark-text role-axis-label" pointer-events="none"><text text-anchor="end" transform="translate(-11,233)" font-family="system-ui, -apple-system, &quot;Segoe UI&quot;, sans-serif" font-size="11.5px" fill="#c3c2b7" opacity="1">0</text><text text-anchor="end" transform="translate(-11,194.66666666666669)" font-family="system-ui, -apple-system, &quot;Segoe UI&quot;, sans-serif" font-size="11.5px" fill="#c3c2b7" opacity="1">1</text><text text-anchor="end" transform="translate(-11,156.33333333333334)" font-family="system-ui, -apple-system, &quot;Segoe UI&quot;, sans-serif" font-size="11.5px" fill="#c3c2b7" opacity="1">2</text><text text-anchor="end" transform="translate(-11,118)" font-family="system-ui, -apple-system, &quot;Segoe UI&quot;, sans-serif" font-size="11.5px" fill="#c3c2b7" opacity="1">3</text><text text-anchor="end" transform="translate(-11,79.66666666666667)" font-family="system-ui, -apple-system, &quot;Segoe UI&quot;, sans-serif" font-size="11.5px" fill="#c3c2b7" opacity="1">4</text><text text-anchor="end" transform="translate(-11,41.33333333333332)" font-family="system-ui, -apple-system, &quot;Segoe UI&quot;, sans-serif" font-size="11.5px" fill="#c3c2b7" opacity="1">5</text><text text-anchor="end" transform="translate(-11,3)" font-family="system-ui, -apple-system, &quot;Segoe UI&quot;, sans-serif" font-size="11.5px" fill="#c3c2b7" opacity="1">6</text></g><g class="mark-rule role-axis-domain" pointer-events="none"><line transform="translate(0,230)" x2="0" y2="-230" stroke="#383835" stroke-width="1" opacity="1"/></g><g class="mark-text role-axis-title" pointer-events="none"><text text-anchor="middle" transform="translate(-30,115) rotate(-90) translate(0,-3)" font-family="system-ui, -apple-system, &quot;Segoe UI&quot;, sans-serif" font-size="12px" font-weight="500" fill="#c3c2b7" opacity="1">Planted bugs included (of 6)</text></g></g><path class="foreground" aria-hidden="true" d="" pointer-events="none" display="none"/></g></g><g class="mark-group role-scope" role="graphics-object" aria-roledescription="group mark container"><g transform="translate(50.5,191.66666666666669)"><path class="background" aria-hidden="true" d="M3,0L11,0C12.655745073482,0,14,1.344254926518,14,3L14,38.333333333333314C14,38.333333333333314,14,38.333333333333314,14,38.333333333333314L0,38.333333333333314C0,38.333333333333314,0,38.333333333333314,0,38.333333333333314L0,3C0,1.344254926518,1.344254926518,0,3,0Z"/><g clip-path="url(#clip61)"><g class="mark-group role-scope" role="graphics-object" aria-roledescription="group mark container"><g transform="translate(0,-191.66666666666669)"><path class="background" aria-hidden="true" d="M0,0h14v0h-14Z"/><g><g class="mark-rect role-mark layer_0_marks" role="graphics-object" aria-roledescription="rect mark container"><path aria-label="budget: 5 files; found: 1; order: Risk order (scan_project)" role="graphics-symbol" aria-roledescription="bar" d="M0,191.66666666666669h14v38.333333333333314h-14Z" fill="#3987e5"/></g></g><path class="foreground" aria-hidden="true" d="" display="none"/></g></g></g><path class="foreground" aria-hidden="true" d="" display="none"/></g><g transform="translate(96.5,230)"><path class="background" aria-hidden="true" d="M0,0h14v0h-14Z"/><g clip-path="url(#clip62)"><g class="mark-group role-scope" role="graphics-object" aria-roledescription="group mark container"><g transform="translate(0,-230)"><path class="background" aria-hidden="true" d="M0,0h14v0h-14Z"/><g><g class="mark-rect role-mark layer_0_marks" role="graphics-object" aria-roledescription="rect mark container"><path aria-label="budget: 5 files; found: 0; order: Directory order" role="graphics-symbol" aria-roledescription="bar" d="M0,230h14v0h-14Z" fill="#d95926"/></g></g><path class="foreground" aria-hidden="true" d="" display="none"/></g></g></g><path class="foreground" aria-hidden="true" d="" display="none"/></g><g transform="translate(142.5,201.25)"><path class="background" aria-hidden="true" d="M3,0L11,0C12.655745073482,0,14,1.344254926518,14,3L14,28.75C14,28.75,14,28.75,14,28.75L0,28.75C0,28.75,0,28.75,0,28.75L0,3C0,1.344254926518,1.344254926518,0,3,0Z"/><g clip-path="url(#clip63)"><g class="mark-group role-scope" role="graphics-object" aria-roledescription="group mark container"><g transform="translate(0,-201.25)"><path class="background" aria-hidden="true" d="M0,0h14v0h-14Z"/><g><g class="mark-rect role-mark layer_0_marks" role="graphics-object" aria-roledescription="rect mark container"><path aria-label="budget: 5 files; found: 0.75; order: Random (expected)" role="graphics-symbol" aria-roledescription="bar" d="M0,201.25h14v28.75h-14Z" fill="#199e70"/></g></g><path class="foreground" aria-hidden="true" d="" display="none"/></g></g></g><path class="foreground" aria-hidden="true" d="" display="none"/></g><g transform="translate(223,153.33333333333334)"><path class="background" aria-hidden="true" d="M3,0L11,0C12.655745073482,0,14,1.344254926518,14,3L14,76.66666666666666C14,76.66666666666666,14,76.66666666666666,14,76.66666666666666L0,76.66666666666666C0,76.66666666666666,0,76.66666666666666,0,76.66666666666666L0,3C0,1.344254926518,1.344254926518,0,3,0Z"/><g clip-path="url(#clip64)"><g class="mark-group role-scope" role="graphics-object" aria-roledescription="group mark container"><g transform="translate(0,-153.33333333333334)"><path class="background" aria-hidden="true" d="M0,0h14v0h-14Z"/><g><g class="mark-rect role-mark layer_0_marks" role="graphics-object" aria-roledescription="rect mark container"><path aria-label="budget: 10 files; found: 2; order: Risk order (scan_project)" role="graphics-symbol" aria-roledescription="bar" d="M0,153.33333333333334h14v76.66666666666666h-14Z" fill="#3987e5"/></g></g><path class="foreground" aria-hidden="true" d="" display="none"/></g></g></g><path class="foreground" aria-hidden="true" d="" display="none"/></g><g transform="translate(269,191.66666666666669)"><path class="background" aria-hidden="true" d="M3,0L11,0C12.655745073482,0,14,1.344254926518,14,3L14,38.333333333333314C14,38.333333333333314,14,38.333333333333314,14,38.333333333333314L0,38.333333333333314C0,38.333333333333314,0,38.333333333333314,0,38.333333333333314L0,3C0,1.344254926518,1.344254926518,0,3,0Z"/><g clip-path="url(#clip65)"><g class="mark-group role-scope" role="graphics-object" aria-roledescription="group mark container"><g transform="translate(0,-191.66666666666669)"><path class="background" aria-hidden="true" d="M0,0h14v0h-14Z"/><g><g class="mark-rect role-mark layer_0_marks" role="graphics-object" aria-roledescription="rect mark container"><path aria-label="budget: 10 files; found: 1; order: Directory order" role="graphics-symbol" aria-roledescription="bar" d="M0,191.66666666666669h14v38.333333333333314h-14Z" fill="#d95926"/></g></g><path class="foreground" aria-hidden="true" d="" display="none"/></g></g></g><path class="foreground" aria-hidden="true" d="" display="none"/></g><g transform="translate(315,172.5)"><path class="background" aria-hidden="true" d="M3,0L11,0C12.655745073482,0,14,1.344254926518,14,3L14,57.5C14,57.5,14,57.5,14,57.5L0,57.5C0,57.5,0,57.5,0,57.5L0,3C0,1.344254926518,1.344254926518,0,3,0Z"/><g clip-path="url(#clip66)"><g class="mark-group role-scope" role="graphics-object" aria-roledescription="group mark container"><g transform="translate(0,-172.5)"><path class="background" aria-hidden="true" d="M0,0h14v0h-14Z"/><g><g class="mark-rect role-mark layer_0_marks" role="graphics-object" aria-roledescription="rect mark container"><path aria-label="budget: 10 files; found: 1.5; order: Random (expected)" role="graphics-symbol" aria-roledescription="bar" d="M0,172.5h14v57.5h-14Z" fill="#199e70"/></g></g><path class="foreground" aria-hidden="true" d="" display="none"/></g></g></g><path class="foreground" aria-hidden="true" d="" display="none"/></g><g transform="translate(395.5,76.66666666666667)"><path class="background" aria-hidden="true" d="M3,0L11,0C12.655745073482,0,14,1.344254926518,14,3L14,153.33333333333331C14,153.33333333333331,14,153.33333333333331,14,153.33333333333331L0,153.33333333333331C0,153.33333333333331,0,153.33333333333331,0,153.33333333333331L0,3C0,1.344254926518,1.344254926518,0,3,0Z"/><g clip-path="url(#clip67)"><g class="mark-group role-scope" role="graphics-object" aria-roledescription="group mark container"><g transform="translate(0,-76.66666666666667)"><path class="background" aria-hidden="true" d="M0,0h14v0h-14Z"/><g><g class="mark-rect role-mark layer_0_marks" role="graphics-object" aria-roledescription="rect mark container"><path aria-label="budget: 15 files; found: 4; order: Risk order (scan_project)" role="graphics-symbol" aria-roledescription="bar" d="M0,76.66666666666667h14v153.33333333333331h-14Z" fill="#3987e5"/></g></g><path class="foreground" aria-hidden="true" d="" display="none"/></g></g></g><path class="foreground" aria-hidden="true" d="" display="none"/></g><g transform="translate(441.5,153.33333333333334)"><path class="background" aria-hidden="true" d="M3,0L11,0C12.655745073482,0,14,1.344254926518,14,3L14,76.66666666666666C14,76.66666666666666,14,76.66666666666666,14,76.66666666666666L0,76.66666666666666C0,76.66666666666666,0,76.66666666666666,0,76.66666666666666L0,3C0,1.344254926518,1.344254926518,0,3,0Z"/><g clip-path="url(#clip68)"><g class="mark-group role-scope" role="graphics-object" aria-roledescription="group mark container"><g transform="translate(0,-153.33333333333334)"><path class="background" aria-hidden="true" d="M0,0h14v0h-14Z"/><g><g class="mark-rect role-mark layer_0_marks" role="graphics-object" aria-roledescription="rect mark container"><path aria-label="budget: 15 files; found: 2; order: Directory order" role="graphics-symbol" aria-roledescription="bar" d="M0,153.33333333333334h14v76.66666666666666h-14Z" fill="#d95926"/></g></g><path class="foreground" aria-hidden="true" d="" display="none"/></g></g></g><path class="foreground" aria-hidden="true" d="" display="none"/></g><g transform="translate(487.5,143.75)"><path class="background" aria-hidden="true" d="M3,0L11,0C12.655745073482,0,14,1.344254926518,14,3L14,86.25C14,86.25,14,86.25,14,86.25L0,86.25C0,86.25,0,86.25,0,86.25L0,3C0,1.344254926518,1.344254926518,0,3,0Z"/><g clip-path="url(#clip69)"><g class="mark-group role-scope" role="graphics-object" aria-roledescription="group mark container"><g transform="translate(0,-143.75)"><path class="background" aria-hidden="true" d="M0,0h14v0h-14Z"/><g><g class="mark-rect role-mark layer_0_marks" role="graphics-object" aria-roledescription="rect mark container"><path aria-label="budget: 15 files; found: 2.25; order: Random (expected)" role="graphics-symbol" aria-roledescription="bar" d="M0,143.75h14v86.25h-14Z" fill="#199e70"/></g></g><path class="foreground" aria-hidden="true" d="" display="none"/></g></g></g><path class="foreground" aria-hidden="true" d="" display="none"/></g><g transform="translate(568,76.66666666666667)"><path class="background" aria-hidden="true" d="M3,0L11,0C12.655745073482,0,14,1.344254926518,14,3L14,153.33333333333331C14,153.33333333333331,14,153.33333333333331,14,153.33333333333331L0,153.33333333333331C0,153.33333333333331,0,153.33333333333331,0,153.33333333333331L0,3C0,1.344254926518,1.344254926518,0,3,0Z"/><g clip-path="url(#clip70)"><g class="mark-group role-scope" role="graphics-object" aria-roledescription="group mark container"><g transform="translate(0,-76.66666666666667)"><path class="background" aria-hidden="true" d="M0,0h14v0h-14Z"/><g><g class="mark-rect role-mark layer_0_marks" role="graphics-object" aria-roledescription="rect mark container"><path aria-label="budget: 20 files; found: 4; order: Risk order (scan_project)" role="graphics-symbol" aria-roledescription="bar" d="M0,76.66666666666667h14v153.33333333333331h-14Z" fill="#3987e5"/></g></g><path class="foreground" aria-hidden="true" d="" display="none"/></g></g></g><path class="foreground" aria-hidden="true" d="" display="none"/></g><g transform="translate(614,115)"><path class="background" aria-hidden="true" d="M3,0L11,0C12.655745073482,0,14,1.344254926518,14,3L14,115C14,115,14,115,14,115L0,115C0,115,0,115,0,115L0,3C0,1.344254926518,1.344254926518,0,3,0Z"/><g clip-path="url(#clip71)"><g class="mark-group role-scope" role="graphics-object" aria-roledescription="group mark container"><g transform="translate(0,-115)"><path class="background" aria-hidden="true" d="M0,0h14v0h-14Z"/><g><g class="mark-rect role-mark layer_0_marks" role="graphics-object" aria-roledescription="rect mark container"><path aria-label="budget: 20 files; found: 3; order: Directory order" role="graphics-symbol" aria-roledescription="bar" d="M0,115h14v115h-14Z" fill="#d95926"/></g></g><path class="foreground" aria-hidden="true" d="" display="none"/></g></g></g><path class="foreground" aria-hidden="true" d="" display="none"/></g><g transform="translate(660,115)"><path class="background" aria-hidden="true" d="M3,0L11,0C12.655745073482,0,14,1.344254926518,14,3L14,115C14,115,14,115,14,115L0,115C0,115,0,115,0,115L0,3C0,1.344254926518,1.344254926518,0,3,0Z"/><g clip-path="url(#clip72)"><g class="mark-group role-scope" role="graphics-object" aria-roledescription="group mark container"><g transform="translate(0,-115)"><path class="background" aria-hidden="true" d="M0,0h14v0h-14Z"/><g><g class="mark-rect role-mark layer_0_marks" role="graphics-object" aria-roledescription="rect mark container"><path aria-label="budget: 20 files; found: 3; order: Random (expected)" role="graphics-symbol" aria-roledescription="bar" d="M0,115h14v115h-14Z" fill="#199e70"/></g></g><path class="foreground" aria-hidden="true" d="" display="none"/></g></g></g><path class="foreground" aria-hidden="true" d="" display="none"/></g></g><g class="mark-text role-mark layer_1_marks" role="graphics-object" aria-roledescription="text mark container"><text aria-label="budget: 5 files; found: 1; order: Risk order (scan_project)" role="graphics-symbol" aria-roledescription="text mark" text-anchor="middle" transform="translate(57.5,187.66666666666669)" font-family="system-ui, -apple-system, &quot;Segoe UI&quot;, sans-serif" font-size="11px" fill="#c3c2b7">1</text><text aria-label="budget: 5 files; found: 0; order: Directory order" role="graphics-symbol" aria-roledescription="text mark" text-anchor="middle" transform="translate(103.5,226)" font-family="system-ui, -apple-system, &quot;Segoe UI&quot;, sans-serif" font-size="11px" fill="#c3c2b7">0</text><text aria-label="budget: 5 files; found: 0.75; order: Random (expected)" role="graphics-symbol" aria-roledescription="text mark" text-anchor="middle" transform="translate(149.5,197.25)" font-family="system-ui, -apple-system, &quot;Segoe UI&quot;, sans-serif" font-size="11px" fill="#c3c2b7">0.75</text><text aria-label="budget: 10 files; found: 2; order: Risk order (scan_project)" role="graphics-symbol" aria-roledescription="text mark" text-anchor="middle" transform="translate(230,149.33333333333334)" font-family="system-ui, -apple-system, &quot;Segoe UI&quot;, sans-serif" font-size="11px" fill="#c3c2b7">2</text><text aria-label="budget: 10 files; found: 1; order: Directory order" role="graphics-symbol" aria-roledescription="text mark" text-anchor="middle" transform="translate(276,187.66666666666669)" font-family="system-ui, -apple-system, &quot;Segoe UI&quot;, sans-serif" font-size="11px" fill="#c3c2b7">1</text><text aria-label="budget: 10 files; found: 1.5; order: Random (expected)" role="graphics-symbol" aria-roledescription="text mark" text-anchor="middle" transform="translate(322,168.5)" font-family="system-ui, -apple-system, &quot;Segoe UI&quot;, sans-serif" font-size="11px" fill="#c3c2b7">1.5</text><text aria-label="budget: 15 files; found: 4; order: Risk order (scan_project)" role="graphics-symbol" aria-roledescription="text mark" text-anchor="middle" transform="translate(402.5,72.66666666666667)" font-family="system-ui, -apple-system, &quot;Segoe UI&quot;, sans-serif" font-size="11px" fill="#c3c2b7">4</text><text aria-label="budget: 15 files; found: 2; order: Directory order" role="graphics-symbol" aria-roledescription="text mark" text-anchor="middle" transform="translate(448.5,149.33333333333334)" font-family="system-ui, -apple-system, &quot;Segoe UI&quot;, sans-serif" font-size="11px" fill="#c3c2b7">2</text><text aria-label="budget: 15 files; found: 2.25; order: Random (expected)" role="graphics-symbol" aria-roledescription="text mark" text-anchor="middle" transform="translate(494.5,139.75)" font-family="system-ui, -apple-system, &quot;Segoe UI&quot;, sans-serif" font-size="11px" fill="#c3c2b7">2.25</text><text aria-label="budget: 20 files; found: 4; order: Risk order (scan_project)" role="graphics-symbol" aria-roledescription="text mark" text-anchor="middle" transform="translate(575,72.66666666666667)" font-family="system-ui, -apple-system, &quot;Segoe UI&quot;, sans-serif" font-size="11px" fill="#c3c2b7">4</text><text aria-label="budget: 20 files; found: 3; order: Directory order" role="graphics-symbol" aria-roledescription="text mark" text-anchor="middle" transform="translate(621,111)" font-family="system-ui, -apple-system, &quot;Segoe UI&quot;, sans-serif" font-size="11px" fill="#c3c2b7">3</text><text aria-label="budget: 20 files; found: 3; order: Random (expected)" role="graphics-symbol" aria-roledescription="text mark" text-anchor="middle" transform="translate(667,111)" font-family="system-ui, -apple-system, &quot;Segoe UI&quot;, sans-serif" font-size="11px" fill="#c3c2b7">3</text></g><g class="mark-group role-legend" role="graphics-symbol" aria-roledescription="legend" aria-label="Symbol legend for fill color with 3 values: Risk order (scan_project), Directory order, Random (expected)"><g transform="translate(0,-21)"><path class="background" aria-hidden="true" d="M0,0h634v13h-634Z" pointer-events="none"/><g><g class="mark-group role-legend-entry"><g transform="translate(0,0)"><path class="background" aria-hidden="true" d="M0,0h0v0h0Z" pointer-events="none"/><g><g class="mark-group role-scope" role="graphics-object" aria-roledescription="group mark container"><g transform="translate(0,0.25)"><path class="background" aria-hidden="true" d="M0,0h257v12.5h-257Z" pointer-events="none" opacity="1"/><g><g class="mark-symbol role-legend-symbol" pointer-events="none"><path transform="translate(6.5,6.5)" d="M-5.701,-5.701h11.402v11.402h-11.402Z" fill="#3987e5" stroke-width="1.5" opacity="1"/></g><g class="mark-text role-legend-label" pointer-events="none"><text text-anchor="start" transform="translate(17,10.5)" font-family="system-ui, -apple-system, &quot;Segoe UI&quot;, sans-serif" font-size="12px" fill="#ffffff" opacity="1">Risk order (scan_project)</text></g></g><path class="foreground" aria-hidden="true" d="" pointer-events="none" display="none"/></g><g transform="translate(275,0.25)"><path class="background" aria-hidden="true" d="M0,0h161v12.5h-161Z" pointer-events="none" opacity="1"/><g><g class="mark-symbol role-legend-symbol" pointer-events="none"><path transform="translate(6.5,6.5)" d="M-5.701,-5.701h11.402v11.402h-11.402Z" fill="#d95926" stroke-width="1.5" opacity="1"/></g><g class="mark-text role-legend-label" pointer-events="none"><text text-anchor="start" transform="translate(17,10.5)" font-family="system-ui, -apple-system, &quot;Segoe UI&quot;, sans-serif" font-size="12px" fill="#ffffff" opacity="1">Directory order</text></g></g><path class="foreground" aria-hidden="true" d="" pointer-events="none" display="none"/></g><g transform="translate(454,0.25)"><path class="background" aria-hidden="true" d="M0,0h180v12.5h-180Z" pointer-events="none" opacity="1"/><g><g class="mark-symbol role-legend-symbol" pointer-events="none"><path transform="translate(6.5,6.5)" d="M-5.701,-5.701h11.402v11.402h-11.402Z" fill="#199e70" stroke-width="1.5" opacity="1"/></g><g class="mark-text role-legend-label" pointer-events="none"><text text-anchor="start" transform="translate(17,10.5)" font-family="system-ui, -apple-system, &quot;Segoe UI&quot;, sans-serif" font-size="12px" fill="#ffffff" opacity="1">Random (expected)</text></g></g><path class="foreground" aria-hidden="true" d="" pointer-events="none" display="none"/></g></g></g><path class="foreground" aria-hidden="true" d="" pointer-events="none" display="none"/></g></g></g><path class="foreground" aria-hidden="true" d="" pointer-events="none" display="none"/></g></g></g><path class="foreground" aria-hidden="true" d="" display="none"/></g></g></g><defs><clipPath id="clip61"><path d="M3,0L11,0C12.655745073482,0,14,1.344254926518,14,3L14,38.333333333333314C14,38.333333333333314,14,38.333333333333314,14,38.333333333333314L0,38.333333333333314C0,38.333333333333314,0,38.333333333333314,0,38.333333333333314L0,3C0,1.344254926518,1.344254926518,0,3,0Z"/></clipPath><clipPath id="clip62"><path d="M0,0h14v0h-14Z"/></clipPath><clipPath id="clip63"><path d="M3,0L11,0C12.655745073482,0,14,1.344254926518,14,3L14,28.75C14,28.75,14,28.75,14,28.75L0,28.75C0,28.75,0,28.75,0,28.75L0,3C0,1.344254926518,1.344254926518,0,3,0Z"/></clipPath><clipPath id="clip64"><path d="M3,0L11,0C12.655745073482,0,14,1.344254926518,14,3L14,76.66666666666666C14,76.66666666666666,14,76.66666666666666,14,76.66666666666666L0,76.66666666666666C0,76.66666666666666,0,76.66666666666666,0,76.66666666666666L0,3C0,1.344254926518,1.344254926518,0,3,0Z"/></clipPath><clipPath id="clip65"><path d="M3,0L11,0C12.655745073482,0,14,1.344254926518,14,3L14,38.333333333333314C14,38.333333333333314,14,38.333333333333314,14,38.333333333333314L0,38.333333333333314C0,38.333333333333314,0,38.333333333333314,0,38.333333333333314L0,3C0,1.344254926518,1.344254926518,0,3,0Z"/></clipPath><clipPath id="clip66"><path d="M3,0L11,0C12.655745073482,0,14,1.344254926518,14,3L14,57.5C14,57.5,14,57.5,14,57.5L0,57.5C0,57.5,0,57.5,0,57.5L0,3C0,1.344254926518,1.344254926518,0,3,0Z"/></clipPath><clipPath id="clip67"><path d="M3,0L11,0C12.655745073482,0,14,1.344254926518,14,3L14,153.33333333333331C14,153.33333333333331,14,153.33333333333331,14,153.33333333333331L0,153.33333333333331C0,153.33333333333331,0,153.33333333333331,0,153.33333333333331L0,3C0,1.344254926518,1.344254926518,0,3,0Z"/></clipPath><clipPath id="clip68"><path d="M3,0L11,0C12.655745073482,0,14,1.344254926518,14,3L14,76.66666666666666C14,76.66666666666666,14,76.66666666666666,14,76.66666666666666L0,76.66666666666666C0,76.66666666666666,0,76.66666666666666,0,76.66666666666666L0,3C0,1.344254926518,1.344254926518,0,3,0Z"/></clipPath><clipPath id="clip69"><path d="M3,0L11,0C12.655745073482,0,14,1.344254926518,14,3L14,86.25C14,86.25,14,86.25,14,86.25L0,86.25C0,86.25,0,86.25,0,86.25L0,3C0,1.344254926518,1.344254926518,0,3,0Z"/></clipPath><clipPath id="clip70"><path d="M3,0L11,0C12.655745073482,0,14,1.344254926518,14,3L14,153.33333333333331C14,153.33333333333331,14,153.33333333333331,14,153.33333333333331L0,153.33333333333331C0,153.33333333333331,0,153.33333333333331,0,153.33333333333331L0,3C0,1.344254926518,1.344254926518,0,3,0Z"/></clipPath><clipPath id="clip71"><path d="M3,0L11,0C12.655745073482,0,14,1.344254926518,14,3L14,115C14,115,14,115,14,115L0,115C0,115,0,115,0,115L0,3C0,1.344254926518,1.344254926518,0,3,0Z"/></clipPath><clipPath id="clip72"><path d="M3,0L11,0C12.655745073482,0,14,1.344254926518,14,3L14,115C14,115,14,115,14,115L0,115C0,115,0,115,0,115L0,3C0,1.344254926518,1.344254926518,0,3,0Z"/></clipPath></defs></svg>