<svg style="background:#fcfcfb" xmlns="http://www.w3.org/2000/svg" xmlns:xlink="http://www.w3.org/1999/xlink" version="1.1" class="marks" width="637" height="279" viewBox="0 0 637 279"><rect width="637" height="279" fill="#fcfcfb"/><g fill="none" stroke-miterlimit="4" transform="translate(64,33)"><g class="mark-group role-frame root" role="graphics-object" aria-roledescription="group mark container"><g transform="translate(0,0)"><path class="background" aria-hidden="true" d="M0,0h560v190h-560Z"/><g><g class="mark-group role-axis" aria-hidden="true"><g transform="translate(0.5,190.5)"><path class="background" aria-hidden="true" d="M0,0h0v0h0Z" pointer-events="none"/><g><g class="mark-rule role-axis-grid" pointer-events="none"><line transform="translate(0,-190)" x2="0" y2="190" stroke="#e1e0d9" stroke-width="1" opacity="1"/><line transform="translate(112,-190)" x2="0" y2="190" stroke="#e1e0d9" stroke-width="1" opacity="1"/><line transform="translate(224,-190)" x2="0" y2="190" stroke="#e1e0d9" stroke-width="1" opacity="1"/><line transform="translate(336,-190)" x2="0" y2="190" stroke="#e1e0d9" stroke-width="1" opacity="1"/><line transform="translate(448,-190)" x2="0" y2="190" stroke="#e1e0d9" stroke-width="1" opacity="1"/><line transform="translate(560,-190)" x2="0" y2="190" stroke="#e1e0d9" stroke-width="1" opacity="1"/></g></g><path class="foreground" aria-hidden="true" d="" pointer-events="none" display="none"/></g></g><g class="mark-group role-axis" role="graphics-symbol" aria-roledescription="axis" aria-label="X-axis titled 'Model score for the run' for a linear scale with values from 0.0 to 1.0"><g transform="translate(0.5,190.5)"><path class="background" aria-hidden="true" d="M0,0h0v0h0Z" pointer-events="none"/><g><g class="mark-rule role-axis-tick" pointer-events="none"><line transform="translate(0,0)" x2="0" y2="5" stroke="#c3c2b7" stroke-width="1" opacity="1"/><line transform="translate(112,0)" x2="0" y2="5" stroke="#c3c2b7" stroke-width="1" opacity="1"/><line transform="translate(224,0)" x2="0" y2="5" stroke="#c3c2b7" stroke-width="1" opacity="1"/><line transform="translate(336,0)" x2="0" y2="5" stroke="#c3c2b7" stroke-width="1" opacity="1"/><line transform="translate(448,0)" x2="0" y2="5" stroke="#c3c2b7" stroke-width="1" opacity="1"/><line transform="translate(560,0)" x2="0" y2="5" stroke="#c3c2b7" stroke-width="1" opacity="1"/></g><g class="mark-text role-axis-label" pointer-events="none"><text text-anchor="start" transform="translate(0,20)" font-family="system-ui, -apple-system, &quot;Segoe UI&quot;, sans-serif" font-size="11.5px" fill="#52514e" opacity="1">0.0</text><text text-anchor="middle" transform="translate(112,20)" font-family="system-ui, -apple-system, &quot;Segoe UI&quot;, sans-serif" font-size="11.5px" fill="#52514e" opacity="1">0.2</text><text text-anchor="middle" transform="translate(224,20)" font-family="system-ui, -apple-system, &quot;Segoe UI&quot;, sans-serif" font-size="11.5px" fill="#52514e" opacity="1">0.4</text><text text-anchor="middle" transform="translate(336,20)" font-family="system-ui, -apple-system, &quot;Segoe UI&quot;, sans-serif" font-size="11.5px" fill="#52514e" opacity="1">0.6</text><text text-anchor="middle" transform="translate(448,20)" font-family="system-ui, -apple-system, &quot;Segoe UI&quot;, sans-serif" font-size="11.5px" fill="#52514e" opacity="1">0.8</text><text text-anchor="end" transform="translate(560,20)" font-family="system-ui, -apple-system, &quot;Segoe UI&quot;, sans-serif" font-size="11.5px" fill="#52514e" opacity="1">1.0</text></g><g class="mark-rule role-axis-domain" pointer-events="none"><line transform="translate(0,0)" x2="560" y2="0" stroke="#c3c2b7" stroke-width="1" opacity="1"/></g><g class="mark-text role-axis-title" pointer-events="none"><text text-anchor="middle" transform="translate(280,41.5)" font-family="system-ui, -apple-system, &quot;Segoe UI&quot;, sans-serif" font-size="12px" font-weight="500" fill="#52514e" opacity="1">Model score for the run</text></g></g><path class="foreground" aria-hidden="true" d="" pointer-events="none" display="none"/></g></g><g class="mark-group role-axis" role="graphics-symbol" aria-roledescription="axis" aria-label="Y-axis titled 'Runs at this score' for a linear scale with values from 0 to 19"><g transform="translate(0.5,0.5)"><path class="background" aria-hidden="true" d="M0,0h0v0h0Z" pointer-events="none"/><g><g class="mark-rule role-axis-tick" pointer-events="none"><line transform="translate(0,190)" x2="-5" y2="0" stroke="#c3c2b7" stroke-width="1" opacity="1"/><line transform="translate(0,140)" x2="-5" y2="0" stroke="#c3c2b7" stroke-width="1" opacity="1"/><line transform="translate(0,90)" x2="-5" y2="0" stroke="#c3c2b7" stroke-width="1" opacity="1"/><line transform="translate(0,40)" x2="-5" y2="0" stroke="#c3c2b7" stroke-width="1" opacity="1"/></g><g class="mark-text role-axis-label" pointer-events="none"><text text-anchor="end" transform="translate(-11,193)" font-family="system-ui, -apple-system, &quot;Segoe UI&quot;, sans-serif" font-size="11.5px" fill="#52514e" opacity="1">0</text><text text-anchor="end" transform="translate(-11,143)" font-family="system-ui, -apple-system, &quot;Segoe UI&quot;, sans-serif" font-size="11.5px" fill="#52514e" opacity="1">5</text><text text-anchor="end" transform="translate(-11,93)" font-family="system-ui, -apple-system, &quot;Segoe UI&quot;, sans-serif" font-size="11.5px" fill="#52514e" opacity="1">10</text><text text-anchor="end" transform="translate(-11,43)" font-family="system-ui, -apple-system, &quot;Segoe UI&quot;, sans-serif" font-size="11.5px" fill="#52514e" opacity="1">15</text></g><g class="mark-rule role-axis-domain" pointer-events="none"><line transform="translate(0,190)" x2="0" y2="-190" stroke="#c3c2b7" stroke-width="1" opacity="1"/></g><g class="mark-text role-axis-title" pointer-events="none"><text text-anchor="middle" transform="translate(-39,95) rotate(-90) translate(0,-3)" font-family="system-ui, -apple-system, &quot;Segoe UI&quot;, sans-serif" font-size="12px" font-weight="500" fill="#52514e" opacity="1">Runs at this score</text></g></g><path class="foreground" aria-hidden="true" d="" pointer-events="none" display="none"/></g></g><g class="mark-rule role-mark layer_0_marks" role="graphics-object" aria-roledescription="rule mark container"><line aria-label="threshold: 0.7" role="graphics-symbol" aria-roledescription="rule mark" transform="translate(392,0)" x2="0" y2="190" stroke="#52514e" stroke-width="1.5" stroke-dasharray="5,4"/></g><g class="mark-text role-mark layer_1_marks" role="graphics-object" aria-roledescription="text mark container"><text aria-label="threshold: 0.7; label: gate ≥ 0.7" role="graphics-symbol" aria-roledescription="text mark" text-anchor="start" transform="translate(398,18)" font-family="system-ui, -apple-system, &quot;Segoe UI&quot;, sans-serif" font-size="11.5px" fill="#52514e">gate ≥ 0.7</text></g><g class="mark-symbol role-mark layer_2_marks" role="graphics-object" aria-roledescription="symbol mark container"><path aria-label="score: 0; stack: 1; group: Clean control files" role="graphics-symbol" aria-roledescription="circle" transform="translate(0,180)" d="M5.701,0A5.701,5.701,0,1,1,-5.701,0A5.701,5.701,0,1,1,5.701,0" fill="#2a78d6" stroke-width="2" opacity="1"/><path aria-label="score: 0; stack: 2; group: Clean control files" role="graphics-symbol" aria-roledescription="circle" transform="translate(0,170)" d="M5.701,0A5.701,5.701,0,1,1,-5.701,0A5.701,5.701,0,1,1,5.701,0" fill="#2a78d6" stroke-width="2" opacity="1"/><path aria-label="score: 0; stack: 3; group: Clean control files" role="graphics-symbol" aria-roledescription="circle" transform="translate(0,160)" d="M5.701,0A5.701,5.701,0,1,1,-5.701,0A5.701,5.701,0,1,1,5.701,0" fill="#2a78d6" stroke-width="2" opacity="1"/><path aria-label="score: 0.85; stack: 1; group: Files with a planted bug" role="graphics-symbol" aria-roledescription="circle" transform="translate(476,180)" d="M5.701,0A5.701,5.701,0,1,1,-5.701,0A5.701,5.701,0,1,1,5.701,0" fill="#eb6834" stroke-width="2" opacity="1"/><path aria-label="score: 0.85; stack: 2; group: Files with a planted bug" role="graphics-symbol" aria-roledescription="circle" transform="translate(476,170)" d="M5.701,0A5.701,5.701,0,1,1,-5.701,0A5.701,5.701,0,1,1,5.701,0" fill="#eb6834" stroke-width="2" opacity="1"/><path aria-label="score: 0.85; stack: 3; group: Files with a planted bug" role="graphics-symbol" aria-roledescription="circle" transform="translate(476,160)" d="M5.701,0A5.701,5.701,0,1,1,-5.701,0A5.701,5.701,0,1,1,5.701,0" fill="#eb6834" stroke-width="2" opacity="1"/><path aria-label="score: 0; stack: 4; group: Clean control files" role="graphics-symbol" aria-roledescription="circle" transform="translate(0,150)" d="M5.701,0A5.701,5.701,0,1,1,-5.701,0A5.701,5.701,0,1,1,5.701,0" fill="#2a78d6" stroke-width="2" opacity="1"/><path aria-label="score: 0; stack: 5; group: Clean control files" role="graphics-symbol" aria-roledescription="circle" transform="translate(0,140)" d="M5.701,0A5.701,5.701,0,1,1,-5.701,0A5.701,5.701,0,1,1,5.701,0" fill="#2a78d6" stroke-width="2" opacity="1"/><path aria-label="score: 0; stack: 6; group: Clean control files" role="graphics-symbol" aria-roledescription="circle" transform="translate(0,130)" d="M5.701,0A5.701,5.701,0,1,1,-5.701,0A5.701,5.701,0,1,1,5.701,0" fill="#2a78d6" stroke-width="2" opacity="1"/><path aria-label="score: 0.85; stack: 4; group: Files with a planted bug" role="graphics-symbol" aria-roledescription="circle" transform="translate(476,150)" d="M5.701,0A5.701,5.701,0,1,1,-5.701,0A5.701,5.701,0,1,1,5.701,0" fill="#eb6834" stroke-width="2" opacity="1"/><path aria-label="score: 0.85; stack: 5; group: Files with a planted bug" role="graphics-symbol" aria-roledescription="circle" transform="translate(476,140)" d="M5.701,0A5.701,5.701,0,1,1,-5.701,0A5.701,5.701,0,1,1,5.701,0" fill="#eb6834" stroke-width="2" opacity="1"/><path aria-label="score: 0.85; stack: 6; group: Files with a planted bug" role="graphics-symbol" aria-roledescription="circle" transform="translate(476,130)" d="M5.701,0A5.701,5.701,0,1,1,-5.701,0A5.701,5.701,0,1,1,5.701,0" fill="#eb6834" stroke-width="2" opacity="1"/><path aria-label="score: 0.72; stack: 1; group: Files with a planted bug" role="graphics-symbol" aria-roledescription="circle" transform="translate(403.2,180)" d="M5.701,0A5.701,5.701,0,1,1,-5.701,0A5.701,5.701,0,1,1,5.701,0" fill="#eb6834" stroke-width="2" opacity="1"/><path aria-label="score: 0.72; stack: 2; group: Files with a planted bug" role="graphics-symbol" aria-roledescription="circle" transform="translate(403.2,170)" d="M5.701,0A5.701,5.701,0,1,1,-5.701,0A5.701,5.701,0,1,1,5.701,0" fill="#eb6834" stroke-width="2" opacity="1"/><path aria-label="score: 0.72; stack: 3; group: Files with a planted bug" role="graphics-symbol" aria-roledescription="circle" transform="translate(403.2,160)" d="M5.701,0A5.701,5.701,0,1,1,-5.701,0A5.701,5.701,0,1,1,5.701,0" fill="#eb6834" stroke-width="2" opacity="1"/><path aria-label="score: 0; stack: 7; group: Clean control files" role="graphics-symbol" aria-roledescription="circle" transform="translate(0,120)" d="M5.701,0A5.701,5.701,0,1,1,-5.701,0A5.701,5.701,0,1,1,5.701,0" fill="#2a78d6" stroke-width="2" opacity="1"/><path aria-label="score: 0; stack: 8; group: Clean control files" role="graphics-symbol" aria-roledescription="circle" transform="translate(0,110)" d="M5.701,0A5.701,5.701,0,1,1,-5.701,0A5.701,5.701,0,1,1,5.701,0" fill="#2a78d6" stroke-width="2" opacity="1"/><path aria-label="score: 0; stack: 9; group: Clean control files" role="graphics-symbol" aria-roledescription="circle" transform="translate(0,100.00000000000001)" d="M5.701,0A5.701,5.701,0,1,1,-5.701,0A5.701,5.701,0,1,1,5.701,0" fill="#2a78d6" stroke-width="2" opacity="1"/><path aria-label="score: 0; stack: 10; group: Clean control files" role="graphics-symbol" aria-roledescription="circle" transform="translate(0,90)" d="M5.701,0A5.701,5.701,0,1,1,-5.701,0A5.701,5.701,0,1,1,5.701,0" fill="#2a78d6" stroke-width="2" opacity="1"/><path aria-label="score: 0; stack: 11; group: Clean control files" role="graphics-symbol" aria-roledescription="circle" transform="translate(0,80)" d="M5.701,0A5.701,5.701,0,1,1,-5.701,0A5.701,5.701,0,1,1,5.701,0" fill="#2a78d6" stroke-width="2" opacity="1"/><path aria-label="score: 0; stack: 12; group: Clean control files" role="graphics-symbol" aria-roledescription="circle" transform="translate(0,70)" d="M5.701,0A5.701,5.701,0,1,1,-5.701,0A5.701,5.701,0,1,1,5.701,0" fill="#2a78d6" stroke-width="2" opacity="1"/><path aria-label="score: 0; stack: 13; group: Clean control files" role="graphics-symbol" aria-roledescription="circle" transform="translate(0,60)" d="M5.701,0A5.701,5.701,0,1,1,-5.701,0A5.701,5.701,0,1,1,5.701,0" fill="#2a78d6" stroke-width="2" opacity="1"/><path aria-label="score: 0; stack: 14; group: Clean control files" role="graphics-symbol" aria-roledescription="circle" transform="translate(0,50.00000000000001)" d="M5.701,0A5.701,5.701,0,1,1,-5.701,0A5.701,5.701,0,1,1,5.701,0" fill="#2a78d6" stroke-width="2" opacity="1"/><path aria-label="score: 0; stack: 15; group: Clean control files" role="graphics-symbol" aria-roledescription="circle" transform="translate(0,40)" d="M5.701,0A5.701,5.701,0,1,1,-5.701,0A5.701,5.701,0,1,1,5.701,0" fill="#2a78d6" stroke-width="2" opacity="1"/><path aria-label="score: 0.92; stack: 1; group: Files with a planted bug" role="graphics-symbol" aria-roledescription="circle" transform="translate(515.2,180)" d="M5.701,0A5.701,5.701,0,1,1,-5.701,0A5.701,5.701,0,1,1,5.701,0" fill="#eb6834" stroke-width="2" opacity="1"/><path aria-label="score: 0.93; stack: 1; group: Files with a planted bug" role="graphics-symbol" aria-roledescription="circle" transform="translate(520.8000000000001,180)" d="M5.701,0A5.701,5.701,0,1,1,-5.701,0A5.701,5.701,0,1,1,5.701,0" fill="#eb6834" stroke-width="2" opacity="1"/><path aria-label="score: 0.92; stack: 2; group: Files with a planted bug" role="graphics-symbol" aria-roledescription="circle" transform="translate(515.2,170)" d="M5.701,0A5.701,5.701,0,1,1,-5.701,0A5.701,5.701,0,1,1,5.701,0" fill="#eb6834" stroke-width="2" opacity="1"/><path aria-label="score: 0; stack: 16; group: Clean control files" role="graphics-symbol" aria-roledescription="circle" transform="translate(0,30.000000000000007)" d="M5.701,0A5.701,5.701,0,1,1,-5.701,0A5.701,5.701,0,1,1,5.701,0" fill="#2a78d6" stroke-width="2" opacity="1"/><path aria-label="score: 0; stack: 17; group: Clean control files" role="graphics-symbol" aria-roledescription="circle" transform="translate(0,20)" d="M5.701,0A5.701,5.701,0,1,1,-5.701,0A5.701,5.701,0,1,1,5.701,0" fill="#2a78d6" stroke-width="2" opacity="1"/><path aria-label="score: 0; stack: 18; group: Clean control files" role="graphics-symbol" aria-roledescription="circle" transform="translate(0,10.00000000000001)" d="M5.701,0A5.701,5.701,0,1,1,-5.701,0A5.701,5.701,0,1,1,5.701,0" fill="#2a78d6" stroke-width="2" opacity="1"/><path aria-label="score: 0.9; stack: 1; group: Files with a planted bug" role="graphics-symbol" aria-roledescription="circle" transform="translate(504,180)" d="M5.701,0A5.701,5.701,0,1,1,-5.701,0A5.701,5.701,0,1,1,5.701,0" fill="#eb6834" stroke-width="2" opacity="1"/><path aria-label="score: 0.9; stack: 2; group: Files with a planted bug" role="graphics-symbol" aria-roledescription="circle" transform="translate(504,170)" d="M5.701,0A5.701,5.701,0,1,1,-5.701,0A5.701,5.701,0,1,1,5.701,0" fill="#eb6834" stroke-width="2" opacity="1"/><path aria-label="score: 0.88; stack: 1; group: Files with a planted bug" role="graphics-symbol" aria-roledescription="circle" transform="translate(492.8,180)" d="M5.701,0A5.701,5.701,0,1,1,-5.701,0A5.701,5.701,0,1,1,5.701,0" fill="#eb6834" stroke-width="2" opacity="1"/><path aria-label="score: 0.78; stack: 1; group: Files with a planted bug" role="graphics-symbol" aria-roledescription="circle" transform="translate(436.8,180)" d="M5.701,0A5.701,5.701,0,1,1,-5.701,0A5.701,5.701,0,1,1,5.701,0" fill="#eb6834" stroke-width="2" opacity="1"/><path aria-label="score: 0.78; stack: 2; group: Files with a planted bug" role="graphics-symbol" aria-roledescription="circle" transform="translate(436.8,170)" d="M5.701,0A5.701,5.701,0,1,1,-5.701,0A5.701,5.701,0,1,1,5.701,0" fill="#eb6834" stroke-width="2" opacity="1"/><path aria-label="score: 0.78; stack: 3; group: Files with a planted bug" role="graphics-symbol" aria-roledescription="circle" transform="translate(436.8,160)" d="M5.701,0A5.701,5.701,0,1,1,-5.701,0A5.701,5.701,0,1,1,5.701,0" fill="#eb6834" stroke-width="2" opacity="1"/></g><g class="mark-group role-legend" role="graphics-symbol" aria-roledescription="legend" aria-label="Symbol legend for fill color with 2 values: Files with a planted bug, Clean control files"><g transform="translate(0,-21)"><path class="background" aria-hidden="true" d="M0,0h464v13h-464Z" pointer-events="none"/><g><g class="mark-group role-legend-entry"><g transform="translate(0,0)"><path class="background" aria-hidden="true" d="M0,0h0v0h0Z" pointer-events="none"/><g><g class="mark-group role-scope" role="graphics-object" aria-roledescription="group mark container"><g transform="translate(0,0.25)"><path class="background" aria-hidden="true" d="M0,0h247v12.5h-247Z" pointer-events="none" opacity="1"/><g><g class="mark-symbol role-legend-symbol" pointer-events="none"><path transform="translate(6.5,6.5)" d="M-5.701,-5.701h11.402v11.402h-11.402Z" fill="#eb6834" stroke-width="1.5" opacity="1"/></g><g class="mark-text role-legend-label" pointer-events="none"><text text-anchor="start" transform="translate(17,10.5)" font-family="system-ui, -apple-system, &quot;Segoe UI&quot;, sans-serif" font-size="12px" fill="#0b0b0b" opacity="1">Files with a planted bug</text></g></g><path class="foreground" aria-hidden="true" d="" pointer-events="none" display="none"/></g><g transform="translate(265,0.25)"><path class="background" aria-hidden="true" d="M0,0h199v12.5h-199Z" pointer-events="none" opacity="1"/><g><g class="mark-symbol role-legend-symbol" pointer-events="none"><path transform="translate(6.5,6.5)" d="M-5.701,-5.701h11.402v11.402h-11.402Z" fill="#2a78d6" stroke-width="1.5" opacity="1"/></g><g class="mark-text role-legend-label" pointer-events="none"><text text-anchor="start" transform="translate(17,10.5)" font-family="system-ui, -apple-system, &quot;Segoe UI&quot;, sans-serif" font-size="12px" fill="#0b0b0b" opacity="1">Clean control files</text></g></g><path class="foreground" aria-hidden="true" d="" pointer-events="none" display="none"/></g></g></g><path class="foreground" aria-hidden="true" d="" pointer-events="none" display="none"/></g></g></g><path class="foreground" aria-hidden="true" d="" pointer-events="none" display="none"/></g></g></g><path class="foreground" aria-hidden="true" d="" display="none"/></g></g></g></svg>